<svg width="80" height="58" viewBox="0 0 80 58" fill="none" xmlns="http://www.w3.org/2000/svg">
<path id="image 11 (Traced)" fill-rule="evenodd" clip-rule="evenodd" d="M1.37931 4.82132V9.64264H16.5517H31.7241V4.82132V0H16.5517H1.37931V4.82132ZM0 16.8746V21.6959H6.89655H13.7931V16.8746V12.0533H6.89655H0V16.8746ZM16.5517 16.8746V21.6959H31.7241H46.8966V16.8746V12.0533H31.7241H16.5517V16.8746ZM1.37931 28.9279V33.7492H16.5517H31.7241V28.9279V24.1066H16.5517H1.37931V28.9279ZM34.4828 28.9279V33.7492H49.6552H64.8276V28.9279V24.1066H49.6552H34.4828V28.9279ZM0 40.9812V45.8026H6.89655H13.7931V40.9812V36.1599H6.89655H0V40.9812ZM16.5517 40.9812V45.8026H31.7241H46.8966V40.9812V36.1599H31.7241H16.5517V40.9812ZM49.6552 40.9812V45.8026H64.8276H80V40.9812V36.1599H64.8276H49.6552V40.9812ZM1.37931 53.0345V57.8559H16.5517H31.7241V53.0345V48.2132H16.5517H1.37931V53.0345ZM34.4828 53.0345V57.8559H49.6552H64.8276V53.0345V48.2132H49.6552H34.4828V53.0345Z" fill="url(#paint0_linear_152_640)"/>
<defs>
<linearGradient id="paint0_linear_152_640" x1="57.9412" y1="5.44513" x2="2.74963" y2="67.6988" gradientUnits="userSpaceOnUse">
<stop stop-color="#FFBB00"/>
<stop offset="1" stop-color="#BF8C00"/>
</linearGradient>
</defs>
</svg>
