<svg width="26" height="27" viewBox="0 0 26 27" fill="none" xmlns="http://www.w3.org/2000/svg">
<path d="M0.912837 26.006C0.671032 26.006 0.441282 25.9093 0.272019 25.74C0.0423047 25.5103 -0.0543567 25.1718 0.0302748 24.8575L1.55366 19.163C0.538076 17.2769 0.0060702 15.149 0.0060702 12.997C0.0060702 5.82749 5.83356 0 13.003 0C20.1725 0 26 5.82749 26 12.997C26 20.1665 20.1725 25.9939 13.003 25.9939C10.8147 25.9939 8.6748 25.4499 6.76454 24.4101L1.15465 25.9698C1.07002 25.9939 0.997468 26.006 0.912837 26.006ZM6.88541 22.5361C7.04258 22.5361 7.19976 22.5846 7.34485 22.6572C9.04957 23.6607 11.0081 24.1925 13.003 24.1925C19.169 24.1925 24.1865 19.1751 24.1865 13.009C24.1865 6.84308 19.169 1.82564 13.003 1.82564C6.83705 1.82564 1.8196 6.84308 1.8196 13.009C1.8196 14.9798 2.33947 16.9021 3.31878 18.5947C3.43968 18.8003 3.47598 19.0542 3.41553 19.2839L2.2065 23.8056L6.65569 22.5724C6.72823 22.5482 6.81287 22.5361 6.88541 22.5361Z" fill="#F7F7F7"/>
<path d="M16.3158 19.9725C15.5662 19.9725 14.7925 19.8032 13.9824 19.4526C13.2207 19.1262 12.4591 18.6909 11.7216 18.1469C10.9961 17.6149 10.2829 17.0104 9.63003 16.3575C8.97716 15.6925 8.37259 14.9913 7.84062 14.2659C7.29656 13.5042 6.86131 12.7546 6.54696 12.0171C6.20844 11.2192 6.03918 10.4333 6.03918 9.68371C6.03918 9.15174 6.13588 8.64395 6.31724 8.17243C6.51068 7.67673 6.82504 7.22938 7.2361 6.84249C8.00988 6.08081 9.12223 5.80276 10.0048 6.22592C10.3071 6.35891 10.561 6.57653 10.7545 6.8667L12.1568 8.83738C12.3019 9.03082 12.4108 9.23636 12.4954 9.44189C12.5922 9.6837 12.6526 9.92552 12.6526 10.1552C12.6526 10.4696 12.5679 10.7839 12.3986 11.062C12.2898 11.2433 12.1326 11.461 11.9271 11.6665L11.7699 11.8358C11.8425 11.9325 11.9271 12.0534 12.0601 12.1985C12.314 12.4886 12.592 12.803 12.8943 13.1052C13.1966 13.3954 13.4988 13.6856 13.8011 13.9395C13.9462 14.0604 14.0672 14.1571 14.1639 14.2175L14.333 14.0483C14.5507 13.8307 14.7684 13.6614 14.986 13.5526C15.385 13.2987 16.0015 13.2382 16.5456 13.4679C16.739 13.5405 16.9324 13.6493 17.138 13.7944L19.1572 15.221C19.4352 15.4145 19.6527 15.6805 19.7978 15.9827C19.9187 16.285 19.9672 16.551 19.9672 16.829C19.9672 17.1917 19.8825 17.5424 19.7253 17.8809C19.5681 18.1952 19.3868 18.4733 19.1691 18.7272C18.7822 19.1504 18.335 19.4647 17.8514 19.6702C17.3678 19.8758 16.8478 19.9725 16.3158 19.9725ZM9.12218 7.85807C9.04964 7.85807 8.80789 7.85807 8.50564 8.16033C8.27592 8.37795 8.11872 8.60769 8.0099 8.86159C7.90109 9.11548 7.85272 9.40565 7.85272 9.69581C7.85272 10.2036 7.97361 10.7476 8.21541 11.328C8.46931 11.9325 8.84414 12.5733 9.30357 13.2141C9.77509 13.8548 10.3071 14.4956 10.8995 15.088C11.492 15.6684 12.1205 16.2124 12.7734 16.696C13.4021 17.1555 14.043 17.5182 14.6838 17.7962C15.6026 18.1952 16.4488 18.2919 17.138 18.0018C17.3798 17.9051 17.5974 17.7358 17.815 17.5182C17.9238 17.3973 18.0086 17.2764 18.0811 17.1192C18.1174 17.0346 18.1415 16.9378 18.1415 16.8532C18.1415 16.829 18.1415 16.7928 18.1052 16.7202L16.0861 15.3178C16.0015 15.2573 15.9169 15.2089 15.8443 15.1848C15.796 15.2089 15.7235 15.2452 15.5905 15.3782L15.1311 15.8376C14.7805 16.1882 14.2243 16.285 13.777 16.1278L13.5594 16.0311C13.2813 15.886 12.9668 15.6684 12.6162 15.3661C12.2777 15.0759 11.9514 14.7737 11.6008 14.4352C11.2622 14.0845 10.96 13.7581 10.6698 13.4196C10.3554 13.0448 10.1378 12.7425 9.99271 12.4886L9.85974 12.1743C9.82347 12.0534 9.81133 11.9204 9.81133 11.7995C9.81133 11.461 9.93228 11.1587 10.162 10.9169L10.6215 10.4454C10.7545 10.3124 10.8028 10.2399 10.827 10.1915C10.7907 10.1069 10.7424 10.0343 10.6819 9.94969L9.26726 7.95482L9.12218 7.85807Z" fill="#F7F7F7"/>
</svg>
