<svg width="26" height="27" viewBox="0 0 26 27" fill="none" xmlns="http://www.w3.org/2000/svg">
<path d="M25.9906 11.706C25.9319 10.2368 25.5844 8.79356 24.9678 7.45871C24.2966 6.00207 23.3469 4.6908 22.1723 3.59875C19.7009 1.28194 16.4434 0.00604248 13 0.00604248C10.4289 0.0060345 7.91544 0.768465 5.7776 2.19692C3.63976 3.62538 1.97351 5.6557 0.989572 8.03114C0.00563157 10.4066 -0.251811 13.0204 0.249799 15.5422C0.751409 18.064 1.98954 20.3803 3.80763 22.1984C6.22936 24.6201 9.5089 25.9884 12.9337 26.0058C16.3585 26.0233 19.6518 24.6886 22.0981 22.2917L20.8848 21.0537C18.7828 23.1228 15.9496 24.2795 13 24.2727C6.7876 24.2727 1.73338 19.2184 1.73338 13.006C1.73338 6.7936 6.7876 1.73937 13 1.73937C19.1072 1.73937 24.2667 6.50197 24.2667 12.1394V14.0893C24.2667 15.6425 22.9059 16.906 21.2333 16.906C19.5608 16.906 18.2 15.6425 18.2 14.0893V7.80603H16.4667V9.25504C15.6623 8.50795 14.65 8.02293 13.5637 7.86424C12.4775 7.70555 11.3687 7.88069 10.3843 8.36644C9.39981 8.8522 8.58622 9.62565 8.0513 10.5843C7.51639 11.5429 7.28541 12.6414 7.38897 13.7343C7.49253 14.8272 7.92575 15.8628 8.63121 16.7038C9.33667 17.5449 10.2811 18.1518 11.3392 18.444C12.3974 18.7362 13.5194 18.6999 14.5565 18.34C15.5935 17.9801 16.4968 17.3136 17.1465 16.4287C17.981 17.7521 19.5006 18.6393 21.2333 18.6393C23.8617 18.6393 26 16.5982 26 14.0893V11.706H25.9906ZM12.7834 16.906C12.0549 16.906 11.3427 16.69 10.737 16.2853C10.1313 15.8805 9.65919 15.3053 9.38041 14.6322C9.10162 13.9592 9.02868 13.2186 9.1708 12.5041C9.31293 11.7896 9.66373 11.1333 10.1789 10.6182C10.694 10.1031 11.3503 9.75225 12.0648 9.61013C12.7793 9.46801 13.5199 9.54095 14.1929 9.81973C14.8659 10.0985 15.4412 10.5706 15.8459 11.1763C16.2507 11.7821 16.4667 12.4942 16.4667 13.2227C16.4656 14.1992 16.0772 15.1355 15.3866 15.826C14.6961 16.5165 13.7599 16.9049 12.7834 16.906Z" fill="#F7F7F7"/>
</svg>
