<?xml version="1.0" encoding="UTF-8"?>
<!DOCTYPE svg PUBLIC "-//W3C//DTD SVG 1.1//EN" "http://www.w3.org/Graphics/SVG/1.1/DTD/svg11.dtd">
<!-- Creator: CorelDRAW 2019 (64 Bit) -->
<svg xmlns="http://www.w3.org/2000/svg" xml:space="preserve" width="127.769mm" height="131.92mm" version="1.1" style="shape-rendering:geometricPrecision; text-rendering:geometricPrecision; image-rendering:optimizeQuality; fill-rule:evenodd; clip-rule:evenodd"
viewBox="0 0 14892.16 15375.93"
 xmlns:xlink="http://www.w3.org/1999/xlink">
 <defs>
  <style type="text/css">
   <![CDATA[
    .fil0 {fill:black}
   ]]>
  </style>
 </defs>
 <g id="Camada_x0020_1">
  <metadata id="CorelCorpID_0Corel-Layer"/>
  <path class="fil0" d="M2275.82 4062.34c-258.75,-248.64 -578.28,-1029.83 -692.32,-1459.5 -231.43,-872.18 -133.79,-1105.22 -148.68,-1851.78 -107.31,135.9 -233.37,599.5 -288.92,821.29 -71.01,283.76 -124.13,610.54 -137.45,925.11 -21.89,517.33 56.06,1080.83 267.46,1565.34 67.19,154.07 163.6,297.61 219.33,431.5 -189.97,-65.55 -527.43,-463.53 -677.62,-724.16 -213.73,-370.94 -304.32,-681.85 -409.5,-1129.27 -11.5,17.53 -11.48,14.53 -22.22,42.66 -39.03,102.41 -41.89,230.86 -53.5,338.17 -98.41,910.69 177.9,1796.92 855.44,2413.48 33.71,30.69 93.13,73.86 133.09,122.32 -238.63,-27.01 -544.65,-187.96 -711.49,-290.83 -275.89,-170.22 -346.4,-287.47 -572.62,-498.58 -420.05,2472.22 2869.23,4442.11 3981.7,5933.03 -840.17,-1806.51 -996.17,-4171.75 -2761.73,-5207.35 3359.77,1390.63 2138.76,6328.37 6778.33,7456.88l256.76 -313.84c163.86,55.93 331.66,104.48 502.31,145.36 78.28,18.63 156.78,-13.77 200.64,-75.63 183.41,-240.65 322.15,-374.56 460.03,-417.02 130.1,-40.07 288.08,-0.79 515.29,103.3 96.24,43.96 209.93,1.57 253.89,-94.67 6.64,-14.56 11.31,-29.49 14.11,-44.54 27.61,91.33 119.57,149.97 216.06,133.5 31.03,-5.29 59.01,-17.74 82.65,-35.29 147.21,-110.06 247.66,-222 309.34,-333.43 66.26,-119.57 88.52,-237.33 75.85,-351.2 -12.46,-111.92 -57.87,-214.92 -127.73,-308.38 -95.26,-127.45 -238.38,-238.33 -403.06,-329.52 -1.91,-1.07 -4.39,4 -7.06,12.67l-0.77 1.39c-5.36,-47.31 -28.35,-106.54 -90.62,-183.76 -34.4,-42.66 -116.19,-89.46 -225.22,-137.76 316.14,-230.78 688.12,-494.34 825.82,-695.31 504.76,-736.72 839.03,-1397.69 1683.36,-1906.7 304.13,-183.33 1195.14,-613.06 1377.52,-806 -168.85,-42.68 -380.41,-51.9 -563.94,-44.73l-156.01 4.2c-6.27,-0.68 -12.05,-1.88 -17.69,-2.69 -5.72,-0.85 -13.08,-2.81 -17.77,-3.65 -4.69,-0.77 -11.99,-2.13 -17.76,-4.07 415.72,-111.72 781.87,-319.48 1062.64,-550.09 226.97,-186.43 572.72,-592.94 648.41,-837.45 -131.59,72.03 -268.34,204.33 -416.51,286.7 -162.2,90.17 -341.39,175.86 -543.62,213.69 34.31,-55.08 102.59,-112.27 152.55,-167.27 295.71,-325.53 742.61,-1037 751.71,-1431.07 -200.5,188.01 -664.86,731.37 -993.83,837.24 72.45,-144.13 508.31,-546.12 807.85,-1320.74 196.99,-509.39 307.59,-1163.17 94.99,-1805.53 -47.18,112.87 -88.09,443.44 -141.73,614.2 -65.47,208.27 -137.43,378.24 -228.63,553.33 -466.98,3340.05 -7676.05,4865.61 -6841.57,7401.61 -277.61,-479.88 -349.7,-896.76 -268.29,-1270.83 20.5,-2049.85 -3899.86,275.43 -4472.43,-7447.17l-3.35 -19.38c-72.47,-419.48 -75.64,-877.33 -23.64,-1268.98 36,-270.96 86.3,-539 168.36,-799.81 26.03,-82.7 73.1,-178.29 81.53,-251.34 -707.42,679.13 -1069.62,1740.76 -998.51,2798.59 39.96,594.28 153.42,763.87 258.78,1263.75zm6562.7 8533.57c421.11,-553.99 668.52,-626 1211.25,-377.35 -66.04,-177.71 -272.59,-309.49 -403.15,-423.58 -903.57,194.98 -1664.14,278.69 -2545.48,17.74 504.71,367.33 1103.1,631.18 1737.38,783.19zm884.97 -817.7c148.65,0.42 295.25,18.4 409.64,54.96 229.88,73.51 247.76,124.24 288.8,364.69 540.66,-404.13 297.73,-767.54 -123.82,-1001.02 -220.32,-122.06 -30.21,-62.58 -154.8,-217.01 -94.96,-117.76 -1091.21,-391.73 -1347.95,-495.91l136.59 306.31c-349.29,107.17 -381.02,27.31 -695.69,-0.57l137.13 200.88 -497.82 83.02c46.86,36.82 88.94,57.02 144.68,81.64 -83.92,56.53 -167.93,111.21 -252.15,165.25 653.4,396.78 1071.19,414.39 1961.13,456.52l-5.75 1.25zm240.18 -440.32c-185.45,90.09 -346.24,-90.63 -440.09,-211.84l457.13 66.97 -17.04 144.87zm4411.27 -7681.97c-1105.38,2121.87 -3717.02,2355.34 -5189.33,3475.48 -604.5,459.89 -1426.28,1212.09 -1792.88,2300.36 976.5,-1923.87 6150.19,-2734.57 6982.21,-5775.85zm-10032.78 7647.93c176.87,629.79 -293.46,1157.25 -2003.38,1584.2 545.38,1568.85 2451.48,1732.01 3845.14,729.54 161.57,66.46 294.8,179.79 529.81,265.15 89.75,32.64 223.06,53.32 295.54,87.64 65.71,31.1 177.69,137.09 217.07,215.63 -238.39,96.26 -296,315.05 -215.71,603.61 77.28,-105.4 110.45,-203.74 287.37,-261.98 448.91,-147.73 735.32,282.28 456.9,631.06l-132.32 153.56c223.37,-51.32 428.85,-159.42 521.96,-354.16 37.94,-79.35 21.1,-147.65 45.11,-217.03 336.19,126.94 211.9,431.47 153.84,634.86 434.47,-350.76 181.56,-630 433.46,-693.33 163.35,-41.07 347.36,44.37 412.07,128.84 133.69,174.55 5.29,323.27 -44.41,443.12 370.47,-91.78 320.7,-232.15 390.26,-424.14 147.1,114.53 169.24,168.55 222.63,405.74 275.54,-784.47 -221.35,-799.79 -842.88,-1119.09 -180.3,-92.65 -173.19,-93.44 -243.04,-329.35l-638.55 -761.49c-2002.61,59.89 -3037.81,-674.84 -3690.85,-1722.39zm4115.43 2862.39c41.21,47.73 263.13,149.81 321.19,185.04 -45.25,67.46 -112.27,104.29 -160.89,183.57 562.47,-116.68 553.82,114.01 758.63,260.82l-54.92 -217.75c141.26,20.77 235.06,111.92 339.01,144.05 -96.79,-232.82 -571.35,-375.13 -795.43,-463.14 -112.43,-44.19 -183.73,-93.65 -283.4,-139.71l-124.19 47.12zm-957.3 7.2c-61.79,57.67 -143.81,85.85 -204.2,151.98 427.44,-63.7 614.12,48.22 727.97,454.61 45.06,-104.96 26.19,-179.89 -1.77,-312.05 178.67,30.55 288.79,168.53 420.95,242.2 -109.82,-270.58 -595.34,-526.41 -843.59,-659.58 -140.81,-75.55 -135.98,-132.74 -357.63,-106.66 62.93,50.92 202.81,152.94 258.27,229.51z"/>
 </g>
</svg>
