<svg width="80" height="92" viewBox="0 0 80 92" fill="none" xmlns="http://www.w3.org/2000/svg">
<path id="image 14 (Traced)" fill-rule="evenodd" clip-rule="evenodd" d="M33.7921 0.0609184C32.9842 0.199322 32.1053 0.733546 31.6364 1.37126C31.2333 1.91933 31.1349 2.32736 31.1192 3.51589L31.1051 4.57573L30.8471 5.04331C30.3775 5.89412 29.8249 6.3112 28.6486 6.70247C28.2707 6.82821 27.4602 7.10658 26.8476 7.32111C25.5463 7.77671 25.0629 7.87833 24.4548 7.82397C23.3675 7.72677 22.65 7.35228 21.842 6.46014C21.5695 6.15933 21.2113 5.8261 21.0459 5.71974C20.0224 5.06133 18.7377 4.93982 17.5571 5.38988C17.1312 5.55222 16.7898 5.83427 12.3599 9.68312C9.75215 11.9488 7.5134 13.9433 7.38494 14.1153C7.06214 14.5474 6.9076 14.9667 6.86651 15.5222C6.79071 16.5466 7.11051 17.1631 8.19387 18.0816C9.22444 18.9551 9.56603 19.5518 9.56182 20.4709C9.55924 21.0226 9.46307 21.3109 8.95544 22.2893C8.70408 22.7736 8.37892 23.4329 8.23288 23.7544C8.08677 24.0758 7.86514 24.479 7.74025 24.6504C7.24254 25.3339 6.35566 25.8537 5.43148 26.0037C5.10082 26.0574 4.78031 26.0552 4.08333 25.9944C3.27626 25.9242 3.11107 25.9268 2.67617 26.0165C1.29 26.3021 0.272443 27.2504 0.0606716 28.4541C0.0088004 28.749 -0.00941957 30.7465 0.00451278 34.595L0.0252315 40.2987L0.196136 40.6728C0.575381 41.5029 1.08287 41.9857 1.98626 42.3757L2.51834 42.6054L3.73674 42.6137C5.38225 42.6248 5.91433 42.7667 6.67982 43.3985C7.21925 43.8437 7.42209 44.1556 7.91723 45.3018C8.15794 45.8589 8.45223 46.5042 8.57119 46.7355C9.08976 47.7441 9.11848 48.6187 8.66114 49.4712C8.4085 49.9423 8.07077 50.2838 7.37422 50.7725C6.30865 51.5201 5.88711 52.2313 5.89604 53.2662C5.90147 53.902 6.06058 54.3576 6.46212 54.8872C6.59208 55.0586 8.7979 57.0239 11.364 59.2545C14.8337 62.2706 16.1225 63.3527 16.3922 63.4763C17.3679 63.9233 18.4801 63.9449 19.4948 63.5363C19.7823 63.4205 20.0993 63.1909 20.676 62.6807C21.3262 62.1056 21.5609 61.9417 22.0157 61.7456C22.5135 61.5309 22.6352 61.505 23.2683 61.4784C24.0445 61.4457 24.5249 61.5332 25.1718 61.8249C25.6301 62.0316 26.256 62.0522 26.667 61.8742C26.8375 61.8004 28.7449 60.1931 31.6148 57.7051C35.8871 54.0011 36.285 53.6389 36.285 53.4533C36.285 53.3417 36.2449 53.2225 36.1957 53.1884C36.1467 53.1543 35.7206 53.05 35.2491 52.9565C27.5683 51.4343 21.4493 46.2694 19.4626 39.6313C18.9256 37.8373 18.7429 36.3895 18.801 34.3859C18.8836 31.5286 19.5852 29.0589 21.0263 26.5519C23.577 22.115 28.0664 18.7621 33.5012 17.2351C39.6509 15.5073 46.4347 16.3328 51.7893 19.4608C56.9897 22.4986 60.4127 27.3805 61.1107 32.7551C61.1731 33.2352 61.2326 34.175 61.243 34.8436C61.2615 36.0229 61.268 36.0706 61.4597 36.4332C61.7184 36.9226 61.7823 36.978 63.0489 37.8091C63.642 38.1982 64.5262 38.8224 65.0138 39.1962C66.0875 40.0194 68.0999 41.7853 68.7922 42.5119C69.4683 43.2214 70.368 44.3894 70.7517 45.0555C71.1268 45.7066 71.2672 45.8321 71.5903 45.8049C71.8012 45.7872 71.8565 45.7395 72.0793 45.383C72.4529 44.7852 73.0264 44.3038 73.6985 44.0238L74.2596 43.79H75.8672H77.4748L78.0107 43.5639C78.901 43.1882 79.4654 42.6504 79.8179 41.8417C79.9739 41.4839 79.9742 41.4731 79.9953 35.7788C80.0095 31.9314 79.9915 29.9336 79.9397 29.6419C79.8299 29.0241 79.5015 28.4658 78.9792 28.0095C78.1844 27.315 77.3866 27.0808 76.0524 27.1504C74.7847 27.2166 73.9884 26.9799 73.2183 26.3079C72.7629 25.9105 72.5364 25.5583 72.1751 24.6858C72.0392 24.3578 71.7685 23.758 71.5735 23.3532C70.9922 22.1458 70.8928 21.6049 71.1153 20.8595C71.3425 20.0983 71.6092 19.7917 72.959 18.7401C73.8693 18.0308 74.2606 17.1229 74.0839 16.1292C73.9069 15.1339 74.1354 15.3696 68.9065 10.7894C66.31 8.51499 64.0442 6.56805 63.8716 6.46294C63.3666 6.15559 62.7037 5.98109 62.042 5.98134C60.8402 5.98177 60.3221 6.19717 59.2556 7.13987C58.4249 7.87409 58.0563 8.0855 57.3127 8.25452C56.4647 8.44728 55.7503 8.34205 54.54 7.84616C54.1077 7.66905 53.4326 7.41175 53.0396 7.27441C51.9366 6.88887 51.5385 6.68164 51.0808 6.25478C50.2801 5.5079 50.0606 4.85079 50.2013 3.62249C50.3058 2.71034 50.2345 2.24613 49.8972 1.64177C49.4569 0.853308 48.5058 0.221827 47.5102 0.0571151C47.0359 -0.0213757 34.2516 -0.0178842 33.7921 0.0609184ZM44.0014 36.2857C40.8588 36.5644 37.7766 37.6634 34.9368 39.5177C33.9419 40.1674 33.531 40.5073 33.4846 40.719C33.4283 40.9763 33.5836 41.2788 33.8385 41.4083C34.0552 41.5183 34.1235 41.5212 34.8387 41.45C36.977 41.2372 39.0071 41.7099 41.0363 42.8931C43.2011 44.1554 44.3102 45.3926 44.8763 47.1768C45.0042 47.5799 45.0288 47.8322 45.0321 48.7775C45.0356 49.7615 45.0159 49.9649 44.8714 50.4296C44.6643 51.0956 44.1236 52.0874 43.6904 52.5962C43.5078 52.8106 42.4767 53.7925 41.3989 54.7783C37.5305 58.3163 33.2603 62.0019 26.461 67.6706C19.8346 73.1954 17.5399 75.1377 13.4658 78.6702C11.1912 80.6425 9.13963 82.4635 8.90678 82.7168C8.02826 83.6728 7.57049 84.7598 7.51048 86.0325C7.46682 86.9573 7.58528 87.5874 7.95052 88.373C8.26975 89.0599 8.62813 89.519 9.31018 90.115C10.554 91.2021 11.9844 91.7199 13.7432 91.7199C15.0138 91.7199 16.193 91.42 17.202 90.8404C17.6128 90.6044 21.1655 87.5395 33.7391 76.574C42.5467 68.8929 49.9459 62.4826 50.1817 62.3288C52.1406 61.0515 54.4021 60.5934 56.905 60.9668C58.7556 61.2428 59.9025 61.6943 60.9216 62.5479C61.5525 63.0764 61.7733 63.3572 62.4789 64.5283C63.1593 65.6576 63.8993 66.675 64.5598 67.3895C65.0721 67.9435 65.9541 68.6884 66.3675 68.9161C66.7901 69.1489 67.4771 69.2829 67.9716 69.229C68.7393 69.1453 69.0402 68.9433 71.4543 66.8901C79.0237 60.4526 78.8161 60.6367 79.0011 60.1996C79.201 59.7274 79.2054 59.0958 79.012 58.6446C78.8496 58.266 77.8382 57.0675 77.0307 56.297C76.0283 55.3404 75.1627 54.817 74.3467 54.674C74.1417 54.6381 73.4273 54.5817 72.7592 54.5487C70.9983 54.4619 70.052 54.225 69.1003 53.6329C68.4029 53.1992 67.9146 52.5094 67.7157 51.6773C67.6787 51.5225 67.6188 50.8489 67.5826 50.1802C67.5119 48.874 67.4018 48.2884 67.1035 47.6338C66.6434 46.6238 65.9797 45.7728 64.6253 44.4561C61.3776 41.2987 57.303 38.9162 52.6153 37.4335C49.425 36.4244 46.6324 36.0523 44.0014 36.2857ZM14.4606 84.0038C15.6103 84.2618 16.3951 85.1657 16.3802 86.2149C16.3675 87.108 15.8474 87.8325 14.9386 88.2228C14.4996 88.4114 14.4053 88.4281 13.7805 88.4281C13.1753 88.4281 13.0568 88.4088 12.7072 88.2527C12.1905 88.0219 11.6872 87.5847 11.4429 87.1543C11.2701 86.8499 11.2456 86.7343 11.2442 86.2149C11.2428 85.7035 11.2683 85.5749 11.4308 85.2723C11.7728 84.636 12.3976 84.166 13.1309 83.9934C13.5788 83.8881 13.9581 83.891 14.4606 84.0038Z" fill="url(#paint0_linear_152_652)"/>
<defs>
<linearGradient id="paint0_linear_152_652" x1="63.7037" y1="18.1706" x2="-10.8931" y2="97.6482" gradientUnits="userSpaceOnUse">
<stop stop-color="#FFBB00"/>
<stop offset="1" stop-color="#BF8C00"/>
</linearGradient>
</defs>
</svg>
