<svg width="80" height="69" viewBox="0 0 80 69" fill="none" xmlns="http://www.w3.org/2000/svg">
<path id="image 13 (Traced)" fill-rule="evenodd" clip-rule="evenodd" d="M12.2378 0.270078C9.49544 0.969335 8.79222 1.30558 8.79222 1.91829C8.79222 2.30607 10.6682 4.15927 14.1768 7.23674C19.4435 11.8568 19.5597 11.9846 19.4865 13.0907C19.3621 14.9667 18.0551 16.1625 16.0639 16.222C14.5837 16.2664 13.7147 15.685 8.63241 11.2515C5.39098 8.42399 3.47789 6.96142 3.02144 6.96142C2.30083 6.96142 1.45421 8.21587 1.00399 9.95091C0.73032 11.0052 0.732945 15.4382 1.0076 16.2146C1.11819 16.5278 1.35774 17.2111 1.54018 17.7333C2.70379 21.0693 7.61253 25.0239 11.7406 25.951C12.7339 26.1742 18.8601 26.1876 19.7851 25.9686C20.2974 25.8473 21.4331 26.6662 24.9551 29.6952L29.4684 33.577L34.4684 29.2391L39.468 24.9009L34.9941 20.985C31.519 17.9431 30.5588 16.9415 30.694 16.4993C30.7898 16.1861 30.9113 14.8235 30.9644 13.4711C31.0632 10.9485 30.505 8.69589 29.2656 6.61663C27.8962 4.31899 23.4718 1.1581 20.7696 0.54682C20.2281 0.424108 19.5636 0.263814 19.2929 0.190074C18.2274 -0.10005 13.4778 -0.0459541 12.2378 0.270078ZM40.2972 0.571305C39.3062 0.810465 38.3704 1.11425 38.2178 1.24665C37.762 1.64211 38.3162 1.84027 41.1146 2.28272C44.7896 2.8641 49.9772 5.21498 51.5615 7.01722C53.4533 9.16937 54.0886 12.1583 52.9532 13.5648C52.2903 14.3859 52.2985 15.0564 52.9824 15.9624L53.5294 16.6864L42.0538 26.7L30.5785 36.714L33.2214 39.0071L35.8643 41.3002L47.3908 31.3565L58.9176 21.4129L59.9407 22.0692C60.6302 22.5113 61.4755 22.7414 62.5305 22.7738C64.4399 22.8331 65.5796 23.3231 68.1913 25.209C70.0732 26.5679 70.1677 26.6926 69.6722 27.1675C69.3812 27.4466 69.0579 28.1299 68.9539 28.6859C68.6976 30.056 69.8665 31.1379 71.4744 31.0192C72.3801 30.9522 73.2021 30.382 76.2834 27.6809C78.6356 25.619 80 24.2048 80 23.8284C80 23.5013 79.6177 22.8396 79.1504 22.3579C78.0849 21.2592 76.816 21.2079 75.4466 22.2076L74.4523 22.9336L73.5982 21.8135C73.1273 21.1965 72.6866 20.1511 72.6164 19.4857C72.2361 15.8804 66.7891 10.1556 59.2651 5.45272C56.5434 3.75156 50.855 1.20906 48.9902 0.860005C48.4487 0.758647 47.6366 0.605471 47.1854 0.519772C45.1689 0.136832 42.0016 0.160463 40.2972 0.571305ZM44.3961 37.9952L39.4821 42.2659L44.4473 46.6078C48.3191 49.9936 49.3744 51.075 49.2386 51.5191C49.1427 51.8323 49.021 53.1949 48.9678 54.5473C48.8691 57.0699 49.4272 59.3225 50.6667 61.4018C52.036 63.6994 56.4604 66.8603 59.1627 67.4716C59.7041 67.5943 60.3686 67.7549 60.6394 67.8289C61.7744 68.1393 66.1637 68.1003 67.5304 67.7674C70.3909 67.0716 71.14 66.7254 71.14 66.1001C71.14 65.7124 69.264 63.8592 65.7555 60.7817C60.4887 56.1616 60.3726 56.0338 60.4458 54.9277C60.578 52.9364 61.8509 51.8707 64.1801 51.8015C65.3309 51.7674 65.6948 52.0196 70.8319 56.4111C74.2722 59.3521 76.5118 61.057 76.9348 61.057C77.6298 61.057 78.4856 59.7732 78.9283 58.0675C79.2019 57.0132 79.1993 52.5802 78.9247 51.8038C78.8141 51.4906 78.5745 50.8073 78.3921 50.2852C77.2285 46.9489 72.3138 42.9899 68.1916 42.0683C67.1577 41.8371 61.0417 41.822 60.1147 42.0484C59.5548 42.185 58.511 41.4217 54.5404 37.9704C51.8532 35.6352 49.5772 33.7245 49.4824 33.7245C49.3875 33.7245 47.0987 35.6463 44.3961 37.9952ZM13.7925 48.445C6.44007 54.1612 0.300448 59.0264 0.148844 59.2565C-0.00275936 59.4865 -0.0457465 59.9552 0.0533537 60.2977C0.32309 61.231 8.2137 67.8901 9.04916 67.8901C9.42915 67.8901 10.1019 67.602 10.5439 67.2495C10.9862 66.8971 16.4817 61.629 22.7565 55.5424C32.3955 46.1924 34.1766 44.3312 34.2374 43.544C34.3004 42.7254 33.9955 42.3416 31.7352 40.3919C29.7696 38.6965 28.925 38.1575 28.1607 38.1117C27.2724 38.0581 25.6639 39.2149 13.7925 48.445Z" fill="url(#paint0_linear_152_646)"/>
<defs>
<linearGradient id="paint0_linear_152_646" x1="48.5039" y1="11.0789" x2="-1.94086" y2="76.721" gradientUnits="userSpaceOnUse">
<stop stop-color="#FFBB00"/>
<stop offset="1" stop-color="#BF8C00"/>
</linearGradient>
</defs>
</svg>
