<svg width="40" height="40" viewBox="0 0 40 40" fill="none" xmlns="http://www.w3.org/2000/svg">
<g id="wpp">
<path id="Vector" d="M39.9671 18.8183C39.2872 7.21994 28.7486 -1.71888 16.6102 0.280864C8.25123 1.66068 1.5521 8.43976 0.252272 16.7986C-0.507629 21.638 0.49228 26.2174 2.672 29.9969L0.892208 36.616C0.49226 38.1158 1.87204 39.4756 3.35185 39.0557L9.87101 37.2559C12.8306 38.9957 16.2902 39.9956 19.9897 39.9956C31.2682 39.9956 40.627 30.0569 39.9671 18.8183ZM29.7684 27.4372C29.5885 27.7972 29.3685 28.1371 29.0885 28.4571C28.5886 28.997 28.0487 29.397 27.4487 29.6369C26.8488 29.8969 26.1889 30.0169 25.489 30.0169C24.4691 30.0169 23.3693 29.7771 22.2294 29.2772C21.0696 28.7772 19.9297 28.1171 18.7899 27.2972C17.63 26.4573 16.5502 25.5175 15.5103 24.4976C14.4704 23.4577 13.5505 22.3579 12.7106 21.218C11.8907 20.0782 11.2308 18.9383 10.7509 17.7985C10.271 16.6586 10.031 15.5589 10.031 14.519C10.031 13.8391 10.151 13.1792 10.391 12.5792C10.6309 11.9593 11.0109 11.3994 11.5509 10.8995C12.1908 10.2596 12.8906 9.9596 13.6305 9.9596C13.9105 9.9596 14.1904 10.0196 14.4504 10.1396C14.7103 10.2595 14.9504 10.4395 15.1303 10.6995L17.45 13.979C17.63 14.239 17.77 14.459 17.85 14.6789C17.95 14.8989 17.99 15.0989 17.99 15.2989C17.99 15.5388 17.91 15.7788 17.77 16.0187C17.63 16.2587 17.45 16.4986 17.2101 16.7386L16.4502 17.5385C16.3302 17.6585 16.2902 17.7785 16.2902 17.9385C16.2902 18.0184 16.3102 18.0984 16.3302 18.1784C16.3702 18.2584 16.3902 18.3184 16.4102 18.3784C16.5902 18.7184 16.9101 19.1383 17.3501 19.6582C17.81 20.1782 18.2899 20.7181 18.8099 21.238C19.3498 21.778 19.8697 22.2579 20.4097 22.7178C20.9296 23.1578 21.3695 23.4577 21.7095 23.6377C21.7695 23.6577 21.8295 23.6977 21.8895 23.7177C21.9695 23.7577 22.0494 23.7577 22.1494 23.7577C22.3294 23.7577 22.4494 23.6977 22.5694 23.5777L23.3293 22.8178C23.5892 22.5579 23.8292 22.3779 24.0492 22.2579C24.2892 22.1179 24.5091 22.0379 24.7691 22.0379C24.9691 22.0379 25.169 22.0779 25.389 22.1779C25.609 22.2779 25.8489 22.3979 26.0889 22.5778L29.4085 24.9375C29.6684 25.1175 29.8484 25.3375 29.9684 25.5775C30.0684 25.8374 30.1284 26.0774 30.1284 26.3574C30.0084 26.6973 29.9284 27.0773 29.7684 27.4372Z" fill="black"/>
</g>
</svg>
